<mxfile host="app.diagrams.net" modified="2020-10-19T18:18:57.302Z" agent="5.0 (Macintosh; Intel Mac OS X 10_15_7) AppleWebKit/537.36 (KHTML, like Gecko) Chrome/86.0.4240.80 Safari/537.36" etag="a1yF2av2hGByi92Cj1oE" version="13.7.8" type="github">
  <diagram id="C5RBs43oDa-KdzZeNtuy" name="Page-1">
    <mxGraphModel dx="1284" dy="676" grid="1" gridSize="10" guides="1" tooltips="1" connect="1" arrows="1" fold="1" page="1" pageScale="1" pageWidth="827" pageHeight="1169" math="0" shadow="0">
      <root>
        <mxCell id="WIyWlLk6GJQsqaUBKTNV-0" />
        <mxCell id="WIyWlLk6GJQsqaUBKTNV-1" parent="WIyWlLk6GJQsqaUBKTNV-0" />
        <mxCell id="WIyWlLk6GJQsqaUBKTNV-3" value="API NaAula" style="rounded=1;whiteSpace=wrap;html=1;fontSize=12;glass=0;strokeWidth=1;shadow=0;" parent="WIyWlLk6GJQsqaUBKTNV-1" vertex="1">
          <mxGeometry x="371" y="20" width="86" height="20" as="geometry" />
        </mxCell>
        <mxCell id="--pQY1Oh-tjplEkJe2vr-24" style="edgeStyle=orthogonalEdgeStyle;rounded=0;orthogonalLoop=1;jettySize=auto;html=1;entryX=0.5;entryY=0;entryDx=0;entryDy=0;" edge="1" parent="WIyWlLk6GJQsqaUBKTNV-1" source="--pQY1Oh-tjplEkJe2vr-0" target="--pQY1Oh-tjplEkJe2vr-12">
          <mxGeometry relative="1" as="geometry" />
        </mxCell>
        <mxCell id="--pQY1Oh-tjplEkJe2vr-0" value="/login/:TIPO:" style="rounded=0;whiteSpace=wrap;html=1;" vertex="1" parent="WIyWlLk6GJQsqaUBKTNV-1">
          <mxGeometry x="60" y="110" width="80" height="30" as="geometry" />
        </mxCell>
        <mxCell id="--pQY1Oh-tjplEkJe2vr-1" value="api.naaula.local" style="rounded=0;whiteSpace=wrap;html=1;" vertex="1" parent="WIyWlLk6GJQsqaUBKTNV-1">
          <mxGeometry x="360" y="60" width="120" height="20" as="geometry" />
        </mxCell>
        <mxCell id="--pQY1Oh-tjplEkJe2vr-25" style="edgeStyle=orthogonalEdgeStyle;rounded=0;orthogonalLoop=1;jettySize=auto;html=1;entryX=0.5;entryY=0;entryDx=0;entryDy=0;" edge="1" parent="WIyWlLk6GJQsqaUBKTNV-1" source="--pQY1Oh-tjplEkJe2vr-4" target="--pQY1Oh-tjplEkJe2vr-8">
          <mxGeometry relative="1" as="geometry" />
        </mxCell>
        <mxCell id="--pQY1Oh-tjplEkJe2vr-4" value="/getProfessorDisciplinas" style="rounded=0;whiteSpace=wrap;html=1;" vertex="1" parent="WIyWlLk6GJQsqaUBKTNV-1">
          <mxGeometry x="190" y="110" width="140" height="30" as="geometry" />
        </mxCell>
        <mxCell id="--pQY1Oh-tjplEkJe2vr-8" value="&lt;span&gt;METHOD: GET&lt;/span&gt;&lt;br&gt;&lt;br&gt;&lt;span&gt;Params:&lt;/span&gt;&lt;br&gt;&lt;span&gt;&amp;nbsp; &amp;nbsp; ID Professor&lt;/span&gt;" style="rounded=0;whiteSpace=wrap;html=1;align=left;" vertex="1" parent="WIyWlLk6GJQsqaUBKTNV-1">
          <mxGeometry x="190" y="170" width="140" height="110" as="geometry" />
        </mxCell>
        <mxCell id="--pQY1Oh-tjplEkJe2vr-12" value="&lt;span&gt;METHOD: POST&lt;/span&gt;&lt;br&gt;&lt;br&gt;&lt;span&gt;Params:&lt;/span&gt;&lt;br&gt;&lt;span&gt;&amp;nbsp; &amp;nbsp; Tipo&lt;/span&gt;&lt;br&gt;&amp;nbsp; &amp;nbsp; Email&lt;br&gt;&amp;nbsp; &amp;nbsp; Senha" style="rounded=0;whiteSpace=wrap;html=1;align=left;" vertex="1" parent="WIyWlLk6GJQsqaUBKTNV-1">
          <mxGeometry x="30" y="170" width="140" height="110" as="geometry" />
        </mxCell>
        <mxCell id="--pQY1Oh-tjplEkJe2vr-26" style="edgeStyle=orthogonalEdgeStyle;rounded=0;orthogonalLoop=1;jettySize=auto;html=1;entryX=0.5;entryY=0;entryDx=0;entryDy=0;" edge="1" parent="WIyWlLk6GJQsqaUBKTNV-1" source="--pQY1Oh-tjplEkJe2vr-15" target="--pQY1Oh-tjplEkJe2vr-16">
          <mxGeometry relative="1" as="geometry" />
        </mxCell>
        <mxCell id="--pQY1Oh-tjplEkJe2vr-15" value="/getAlunoAula" style="rounded=0;whiteSpace=wrap;html=1;" vertex="1" parent="WIyWlLk6GJQsqaUBKTNV-1">
          <mxGeometry x="350" y="110" width="140" height="30" as="geometry" />
        </mxCell>
        <mxCell id="--pQY1Oh-tjplEkJe2vr-16" value="&lt;span&gt;METHOD: GET&lt;/span&gt;&lt;br&gt;&lt;br&gt;&lt;span&gt;Params:&lt;/span&gt;&lt;br&gt;&lt;span&gt;&amp;nbsp; &amp;nbsp; ID Aluno&lt;/span&gt;&lt;br&gt;&lt;span&gt;&amp;nbsp; &amp;nbsp; ID Aula&lt;/span&gt;" style="rounded=0;whiteSpace=wrap;html=1;align=left;" vertex="1" parent="WIyWlLk6GJQsqaUBKTNV-1">
          <mxGeometry x="350" y="170" width="140" height="110" as="geometry" />
        </mxCell>
        <mxCell id="--pQY1Oh-tjplEkJe2vr-27" style="edgeStyle=orthogonalEdgeStyle;rounded=0;orthogonalLoop=1;jettySize=auto;html=1;" edge="1" parent="WIyWlLk6GJQsqaUBKTNV-1" source="--pQY1Oh-tjplEkJe2vr-18" target="--pQY1Oh-tjplEkJe2vr-19">
          <mxGeometry relative="1" as="geometry" />
        </mxCell>
        <mxCell id="--pQY1Oh-tjplEkJe2vr-18" value="/agendarAula" style="rounded=0;whiteSpace=wrap;html=1;" vertex="1" parent="WIyWlLk6GJQsqaUBKTNV-1">
          <mxGeometry x="510" y="110" width="140" height="30" as="geometry" />
        </mxCell>
        <mxCell id="--pQY1Oh-tjplEkJe2vr-19" value="&lt;span&gt;METHOD: POST&lt;/span&gt;&lt;br&gt;&lt;br&gt;&lt;span&gt;Params:&lt;/span&gt;&lt;br&gt;&lt;span&gt;&amp;nbsp; &amp;nbsp; ID Aluno&lt;/span&gt;&lt;br&gt;&lt;span&gt;&amp;nbsp; &amp;nbsp; ID Professor&lt;br&gt;&amp;nbsp; &amp;nbsp; ID Disciplina&lt;br&gt;&amp;nbsp; &amp;nbsp; ID Abrangencia&lt;br&gt;&lt;/span&gt;" style="rounded=0;whiteSpace=wrap;html=1;align=left;" vertex="1" parent="WIyWlLk6GJQsqaUBKTNV-1">
          <mxGeometry x="510" y="170" width="140" height="110" as="geometry" />
        </mxCell>
        <mxCell id="--pQY1Oh-tjplEkJe2vr-31" style="edgeStyle=orthogonalEdgeStyle;rounded=0;orthogonalLoop=1;jettySize=auto;html=1;entryX=0.5;entryY=0;entryDx=0;entryDy=0;" edge="1" parent="WIyWlLk6GJQsqaUBKTNV-1" source="--pQY1Oh-tjplEkJe2vr-28" target="--pQY1Oh-tjplEkJe2vr-29">
          <mxGeometry relative="1" as="geometry" />
        </mxCell>
        <mxCell id="--pQY1Oh-tjplEkJe2vr-28" value="/getDiscAbrangencias" style="rounded=0;whiteSpace=wrap;html=1;" vertex="1" parent="WIyWlLk6GJQsqaUBKTNV-1">
          <mxGeometry x="670" y="110" width="140" height="30" as="geometry" />
        </mxCell>
        <mxCell id="--pQY1Oh-tjplEkJe2vr-29" value="&lt;span&gt;METHOD: GET&lt;/span&gt;&lt;br&gt;&lt;br&gt;&lt;span&gt;Params:&lt;/span&gt;&lt;br&gt;&lt;span&gt;&amp;nbsp; &amp;nbsp; ID Professor&lt;/span&gt;" style="rounded=0;whiteSpace=wrap;html=1;align=left;" vertex="1" parent="WIyWlLk6GJQsqaUBKTNV-1">
          <mxGeometry x="670" y="170" width="140" height="110" as="geometry" />
        </mxCell>
        <mxCell id="--pQY1Oh-tjplEkJe2vr-33" style="edgeStyle=orthogonalEdgeStyle;rounded=0;orthogonalLoop=1;jettySize=auto;html=1;entryX=0.5;entryY=0;entryDx=0;entryDy=0;" edge="1" parent="WIyWlLk6GJQsqaUBKTNV-1" source="--pQY1Oh-tjplEkJe2vr-34" target="--pQY1Oh-tjplEkJe2vr-35">
          <mxGeometry relative="1" as="geometry" />
        </mxCell>
        <mxCell id="--pQY1Oh-tjplEkJe2vr-34" value="/criarDiscilpina" style="rounded=0;whiteSpace=wrap;html=1;" vertex="1" parent="WIyWlLk6GJQsqaUBKTNV-1">
          <mxGeometry x="30" y="310" width="140" height="30" as="geometry" />
        </mxCell>
        <mxCell id="--pQY1Oh-tjplEkJe2vr-35" value="&lt;span&gt;METHOD: POST&lt;/span&gt;&lt;br&gt;&lt;br&gt;&lt;span&gt;Params:&lt;/span&gt;&lt;br&gt;&lt;span&gt;&amp;nbsp; &amp;nbsp; Nome&lt;/span&gt;" style="rounded=0;whiteSpace=wrap;html=1;align=left;" vertex="1" parent="WIyWlLk6GJQsqaUBKTNV-1">
          <mxGeometry x="30" y="370" width="140" height="110" as="geometry" />
        </mxCell>
      </root>
    </mxGraphModel>
  </diagram>
</mxfile>
